<svg width="17" height="18" viewBox="0 0 17 18" fill="none" xmlns="http://www.w3.org/2000/svg">
<path fill-rule="evenodd" clip-rule="evenodd" d="M8.49976 17C13.1942 17 16.9998 13.1944 16.9998 8.5C16.9998 3.80558 13.1942 0 8.49976 0C3.80534 0 -0.000244141 3.80558 -0.000244141 8.5C-0.000244141 13.1944 3.80534 17 8.49976 17Z" fill="#94A2AB"/>
<path d="M10.7712 5C9.24972 5 8.49976 6.45454 8.49976 6.45454C8.49976 6.45454 7.7498 5 6.22832 5C4.99182 5 4.01265 6.00318 4 7.20022C3.97422 9.68498 6.03262 11.452 8.28883 12.937C8.35103 12.9781 8.42453 13 8.49976 13C8.57499 13 8.64848 12.9781 8.71068 12.937C10.9667 11.452 13.0251 9.68498 12.9995 7.20022C12.9869 6.00318 12.0077 5 10.7712 5Z" stroke="white" stroke-linecap="round" stroke-linejoin="round"/>
</svg>
